<?xml version="1.0" standalone="no"?>
<!DOCTYPE svg PUBLIC "-//W3C//DTD SVG 20010904//EN"
 "http://www.w3.org/TR/2001/REC-SVG-20010904/DTD/svg10.dtd">
<svg version="1.0" xmlns="http://www.w3.org/2000/svg"
 width="206.000000pt" height="206.000000pt" viewBox="0 0 206.000000 206.000000"
 preserveAspectRatio="xMidYMid meet">

<g transform="translate(0.000000,206.000000) scale(0.100000,-0.100000)"
fill="#000000" stroke="none">
<path d="M876 2041 c-17 -18 -34 -20 -294 -23 l-277 -3 -61 -28 c-76 -35 -135
-94 -171 -172 l-28 -60 -3 -275 c-3 -257 -5 -276 -23 -296 -19 -21 -20 -36
-17 -455 3 -426 3 -435 26 -491 30 -75 96 -147 174 -189 l63 -34 556 -2 c520
-3 557 -2 570 15 13 16 13 16 -6 2 -18 -14 -19 -13 -8 1 10 12 33 17 85 18
l72 2 -18 -20 c-19 -21 -19 -21 6 -21 14 0 33 8 42 19 14 15 35 20 119 23 81
3 111 9 145 26 62 33 114 83 147 144 26 47 30 65 33 155 4 84 8 105 23 119 11
9 19 28 19 42 0 25 0 25 -21 6 l-20 -18 2 72 c1 52 6 75 18 85 14 11 15 10 1
-8 -14 -19 -14 -19 2 -6 17 13 18 50 15 570 l-2 556 -29 58 c-36 71 -108 140
-184 175 l-57 27 -441 3 c-427 3 -441 2 -458 -17z m579 -376 c14 -13 25 -35
25 -48 0 -13 -23 -68 -50 -123 -28 -54 -62 -137 -76 -184 -48 -158 -53 -171
-90 -186 -29 -12 -39 -12 -68 0 -51 21 -60 58 -35 152 11 42 19 97 17 123 -3
39 -8 49 -38 69 -72 49 -207 12 -280 -75 -50 -61 -100 -175 -122 -281 -27
-134 -23 -314 10 -387 50 -110 136 -161 260 -153 132 8 244 87 349 246 62 94
90 114 131 91 15 -8 31 -27 36 -42 21 -58 -100 -247 -226 -354 -203 -173 -464
-188 -616 -37 -100 101 -152 258 -152 464 0 129 19 236 62 338 30 73 105 193
151 244 122 132 301 172 471 103 l70 -29 15 25 c49 74 109 92 156 44z"/>
</g>
</svg>
